<svg xmlns="http://www.w3.org/2000/svg" width="820" height="148" viewBox="0 0 820 148" role="img" aria-label="InternRoute Student Career Kit">
  <defs>
    <pattern id="dots" width="22" height="22" patternUnits="userSpaceOnUse">
      <circle cx="1" cy="1" r="1" fill="#14110f" opacity="0.07"/>
    </pattern>
    <linearGradient id="routeLine" x1="0%" y1="0%" x2="100%" y2="0%">
      <stop offset="0%" stop-color="#c84b31" stop-opacity="0.35"/>
      <stop offset="100%" stop-color="#e8b84a" stop-opacity="0.55"/>
    </linearGradient>
  </defs>

  <rect x="10" y="10" width="804" height="132" rx="8" fill="#14110f"/>
  <rect x="4" y="4" width="804" height="132" rx="8" fill="#f3ede3"/>
  <rect x="4" y="4" width="804" height="132" rx="8" fill="url(#dots)"/>
  <rect x="4" y="4" width="804" height="132" rx="8" fill="none" stroke="#14110f" stroke-width="2"/>

  <path d="M 520 88 C 580 58, 640 114, 700 74 C 740 50, 770 84, 792 68"
        fill="none" stroke="url(#routeLine)" stroke-width="2" stroke-dasharray="6 5" stroke-linecap="round"/>
  <circle cx="520" cy="88" r="5" fill="#c84b31" stroke="#14110f" stroke-width="1.5"/>
  <circle cx="700" cy="74" r="4" fill="#e8b84a" stroke="#14110f" stroke-width="1.5"/>
  <circle cx="792" cy="68" r="4" fill="#2f5d4a" stroke="#14110f" stroke-width="1.5"/>

  <rect x="40" y="42" width="52" height="52" rx="6" fill="#14110f"/>
  <rect x="36" y="38" width="52" height="52" rx="6" fill="#e8b84a" stroke="#14110f" stroke-width="2"/>
  <path d="M 50 66 L 68 66 M 64 60 L 68 66 L 64 72" fill="none" stroke="#14110f" stroke-width="3" stroke-linecap="round" stroke-linejoin="round"/>

  <text x="108" y="72" font-family="Georgia, Times New Roman, serif" font-size="42" fill="#14110f" letter-spacing="-0.5">
    Intern<tspan font-style="italic" fill="#c84b31">Route</tspan>
  </text>

  <text x="110" y="96" font-family="Arial, Helvetica, sans-serif" font-size="11.5" font-weight="700" fill="#7a7168" letter-spacing="2.8">
    STUDENT CAREER KIT
  </text>

  <rect x="108" y="104" width="148" height="22" rx="4" fill="#2f5d4a" stroke="#14110f" stroke-width="1.5"/>
  <text x="182" y="119" text-anchor="middle" font-family="Arial, Helvetica, sans-serif" font-size="9.5" font-weight="700" fill="#f3ede3" letter-spacing="1.6">
    YZTA BOOTCAMP 26
  </text>

  <g transform="translate(748, 30)">
    <path d="M 12 0 L 22 10 L 12 28 L 2 10 Z" fill="#c84b31" stroke="#14110f" stroke-width="1.5" stroke-linejoin="round"/>
    <circle cx="12" cy="10" r="3.5" fill="#e8b84a" stroke="#14110f" stroke-width="1"/>
  </g>
</svg>
